<svg width="221" height="120" viewBox="0 0 221 120" fill="none" xmlns="http://www.w3.org/2000/svg">
<path d="M128.282 25.6145C128.36 26.0802 128.282 26.6236 127.972 27.0117C127.584 27.4774 118.11 37.9561 118.11 37.9561C115.47 41.0608 114.849 38.7323 113.684 36.2484C112.519 33.687 111.975 32.2898 110.966 30.1165C109.879 27.7879 109.258 26.7012 106.85 29.4179C103.9 32.6003 97.532 39.8965 96.9884 40.2846C96.5225 40.6727 95.9013 40.4399 95.5906 40.0518C92.7175 36.1708 91.2421 33.9198 90.4656 28.7969C90.3879 28.4088 90.3102 27.9431 90.8538 27.1669C99.0074 17.4645 109.18 13.5059 121.837 12.8073C122.459 12.7297 122.924 13.1178 123.235 13.4282C125.254 15.3687 127.584 20.9573 128.282 25.6145Z" fill="#FFD500"/>
<path d="M96.5225 46.8823C96.4449 46.2613 96.3672 46.0284 96.8331 45.4851C97.2214 45.0194 106.695 34.5407 106.695 34.5407C109.335 31.4359 109.956 33.7645 111.044 36.2484C112.208 38.8098 112.752 40.207 113.761 42.3803C114.849 44.7089 115.47 45.7956 117.877 43.0789C120.828 39.8965 127.04 33.066 127.428 32.6002C128.05 31.9793 128.826 32.0569 129.137 32.5226C131.777 36.8693 132.631 38.8098 134.262 43.7775C134.417 44.088 134.417 44.6313 133.874 45.3299C125.798 55.1099 115.703 58.9909 103.045 59.6895C102.424 59.7671 101.958 59.379 101.648 59.0685C99.551 57.1281 96.9108 51.6171 96.5225 46.8823Z" fill="#1072B9"/>
<path d="M31.1388 77.8525C30.9835 75.291 30.8282 72.1862 30.8282 69.8576H30.7506C30.1293 72.031 29.3528 74.282 28.421 76.8434L25.1596 85.7697H23.3736L20.3451 76.9986C19.4909 74.3596 18.792 72.031 18.2485 69.8576H18.1708C18.0932 72.1862 18.0155 75.2134 17.7825 78.0077L17.3166 85.9249H15.0647L16.3848 67.5291H19.4133L22.597 76.4553C23.3736 78.7063 23.9948 80.7244 24.4607 82.6649H24.5383C25.0043 80.802 25.7031 78.7839 26.4797 76.4553L29.7411 67.5291H32.7695L33.9343 86.0025H31.6048L31.1388 77.8525Z" fill="currentColor"/>
<path d="M39.4477 70.3234C38.5159 70.3234 37.9723 69.6248 37.9723 68.771C37.9723 67.9172 38.5935 67.2186 39.5253 67.2186C40.4572 67.2186 41.0784 67.9172 41.0784 68.771C41.0008 69.5472 40.3795 70.3234 39.4477 70.3234ZM38.2829 86.0026V72.7296H40.6901V86.0026H38.2829Z" fill="currentColor"/>
<path d="M47.9895 69.5472V72.7296H51.4062V74.5925H47.9895V81.7335C47.9895 83.3635 48.4554 84.295 49.7755 84.295C50.3967 84.295 50.785 84.2174 51.1733 84.1397L51.2509 86.0026C50.785 86.1579 50.0085 86.3131 49.1543 86.3131C48.0671 86.3131 47.1353 85.925 46.5917 85.304C45.9705 84.5278 45.6599 83.3635 45.6599 81.8112V74.5925H43.6409V72.7296H45.6599V70.3234L47.9895 69.5472Z" fill="currentColor"/>
<path d="M57.4631 69.5472V72.7296H60.8798V74.5925H57.4631V81.7335C57.4631 83.3635 57.929 84.295 59.2491 84.295C59.8704 84.295 60.2586 84.2174 60.6469 84.1397L60.7245 86.0026C60.2586 86.1579 59.4821 86.3131 58.6279 86.3131C57.5408 86.3131 56.6089 85.925 56.0654 85.304C55.4441 84.5278 55.1335 83.3635 55.1335 81.8112V74.5925H53.1146V72.7296H55.1335V70.3234L57.4631 69.5472Z" fill="currentColor"/>
<path d="M75.0903 82.3545C75.0903 83.7516 75.0903 84.9159 75.168 86.0026H73.0713L72.9937 83.8292H72.916C72.2948 84.9159 70.8971 86.3131 68.5675 86.3131C66.4709 86.3131 63.986 85.1488 63.986 80.4916V72.7296H66.3932V80.0259C66.3932 82.5097 67.1697 84.2949 69.344 84.2949C70.9747 84.2949 72.0619 83.2083 72.5278 82.044C72.6831 81.7335 72.7607 81.2678 72.7607 80.8021V72.7296H75.168V82.3545H75.0903Z" fill="currentColor"/>
<path d="M79.5166 76.3002C79.5166 74.903 79.5166 73.8163 79.4389 72.7297H81.6132L81.7685 74.903H81.8461C82.4674 73.6611 84.0204 72.4192 86.1947 72.4192C88.0584 72.4192 90.8539 73.5059 90.8539 78.0854V86.0026H88.4466V78.3959C88.4466 76.2226 87.6701 74.4373 85.4182 74.4373C83.8651 74.4373 82.6227 75.524 82.1568 76.9211C82.0791 77.2316 82.0014 77.6973 82.0014 78.0078V86.0026H79.5942V76.3002H79.5166Z" fill="currentColor"/>
<path d="M96.2896 70.3234C95.3577 70.3234 94.8141 69.6248 94.8141 68.771C94.8141 67.9172 95.4354 67.2186 96.3672 67.2186C97.299 67.2186 97.9203 67.9172 97.9203 68.771C97.8426 69.5472 97.299 70.3234 96.2896 70.3234ZM95.1248 86.0026V72.7296H97.532V86.0026H95.1248Z" fill="currentColor"/>
<path d="M102.89 72.7296L105.453 80.1811C105.919 81.423 106.229 82.5097 106.54 83.5964H106.617C106.928 82.5097 107.316 81.423 107.705 80.1811L110.267 72.7296H112.752L107.549 86.0026H105.22L100.172 72.7296H102.89Z" fill="currentColor"/>
<path d="M116.635 79.7154C116.712 82.9755 118.731 84.295 121.139 84.295C122.847 84.295 123.934 83.9845 124.788 83.674L125.254 85.3817C124.4 85.7698 122.925 86.2355 120.828 86.2355C116.79 86.2355 114.305 83.5188 114.305 79.5602C114.305 75.524 116.712 72.4192 120.517 72.4192C124.866 72.4192 125.953 76.2226 125.953 78.6288C125.953 79.0945 125.953 79.4826 125.875 79.7931L116.635 79.7154ZM123.623 78.0078C123.623 76.533 123.002 74.1268 120.284 74.1268C117.799 74.1268 116.79 76.3778 116.557 78.0078H123.623Z" fill="currentColor"/>
<path d="M129.37 76.8435C129.37 75.2911 129.37 73.9716 129.292 72.7297H131.389L131.466 75.2911H131.544C132.165 73.5059 133.641 72.4192 135.271 72.4192C135.504 72.4192 135.737 72.4192 135.892 72.4968V74.7478C135.582 74.7478 135.349 74.6702 135.038 74.6702C133.33 74.6702 132.165 75.9897 131.777 77.7749C131.699 78.163 131.699 78.5511 131.699 78.9392V86.0026H129.292L129.37 76.8435Z" fill="currentColor"/>
<path d="M138.377 83.5188C139.154 83.9845 140.396 84.4503 141.561 84.4503C143.27 84.4503 144.124 83.5964 144.124 82.5098C144.124 81.3455 143.425 80.7245 141.716 80.1035C139.309 79.2497 138.222 77.9302 138.222 76.3778C138.222 74.2045 140.008 72.4968 142.804 72.4968C144.124 72.4968 145.289 72.8849 146.065 73.3506L145.521 75.0583C144.978 74.7478 144.046 74.2821 142.804 74.2821C141.406 74.2821 140.629 75.1359 140.629 76.0673C140.629 77.154 141.406 77.6973 143.114 78.3183C145.366 79.1721 146.609 80.3364 146.609 82.2769C146.609 84.6055 144.745 86.2355 141.716 86.2355C140.241 86.2355 138.921 85.8474 137.989 85.3041L138.377 83.5188Z" fill="currentColor"/>
<path d="M151.112 70.3234C150.181 70.3234 149.637 69.6248 149.637 68.771C149.637 67.9172 150.258 67.2186 151.19 67.2186C152.122 67.2186 152.743 67.9172 152.743 68.771C152.666 69.5472 152.122 70.3234 151.112 70.3234ZM149.948 86.0026V72.7296H152.355V86.0026H149.948Z" fill="currentColor"/>
<path d="M159.654 69.5472V72.7296H163.071V74.5925H159.654V81.7335C159.654 83.3635 160.12 84.295 161.44 84.295C162.062 84.295 162.45 84.2174 162.838 84.1397L162.916 86.0026C162.45 86.1579 161.751 86.3131 160.741 86.3131C159.654 86.3131 158.723 85.925 158.179 85.304C157.558 84.5278 157.247 83.3635 157.247 81.8112V74.5925H155.306V72.7296H157.325V70.3234L159.654 69.5472Z" fill="currentColor"/>
<path d="M167.497 79.7154C167.575 82.9755 169.594 84.295 172.001 84.295C173.709 84.295 174.797 83.9845 175.651 83.674L176.117 85.3817C175.262 85.7698 173.787 86.2355 171.69 86.2355C167.653 86.2355 165.168 83.5188 165.168 79.5602C165.168 75.524 167.575 72.4192 171.38 72.4192C175.728 72.4192 176.816 76.2226 176.816 78.6288C176.816 79.0945 176.816 79.4826 176.738 79.7931L167.497 79.7154ZM174.486 78.0078C174.486 76.533 173.865 74.1268 171.147 74.1268C168.662 74.1268 167.653 76.3778 167.42 78.0078H174.486Z" fill="currentColor"/>
<path d="M183.105 69.5472V72.7296H186.522V74.5925H183.105V81.7335C183.105 83.3635 183.571 84.295 184.891 84.295C185.513 84.295 185.901 84.2174 186.289 84.1397L186.367 86.0026C185.901 86.1579 185.124 86.3131 184.193 86.3131C183.105 86.3131 182.174 85.925 181.63 85.304C181.009 84.5278 180.698 83.3635 180.698 81.8112V74.5925H178.679V72.7296H180.698V70.3234L183.105 69.5472Z" fill="currentColor"/>
<path d="M190.871 79.7154C190.948 82.9755 192.967 84.295 195.375 84.295C197.083 84.295 198.17 83.9845 199.024 83.674L199.49 85.3817C198.636 85.7698 197.161 86.2355 195.064 86.2355C191.026 86.2355 188.541 83.5188 188.541 79.5602C188.541 75.524 190.948 72.4192 194.753 72.4192C199.102 72.4192 200.189 76.2226 200.189 78.6288C200.189 79.0945 200.189 79.4826 200.111 79.7931L190.871 79.7154ZM197.937 78.0078C197.937 76.533 197.316 74.1268 194.598 74.1268C192.113 74.1268 191.104 76.3778 190.871 78.0078H197.937Z" fill="currentColor"/>
<path d="M206.557 69.5472V72.7296H209.973V74.5925H206.557V81.7335C206.557 83.3635 207.023 84.295 208.343 84.295C208.964 84.295 209.352 84.2174 209.74 84.1397L209.818 86.0026C209.352 86.1579 208.576 86.3131 207.644 86.3131C206.557 86.3131 205.625 85.925 205.081 85.304C204.46 84.5278 204.149 83.3635 204.149 81.8112V74.5925H202.13V72.7296H204.149V70.3234L206.557 69.5472Z" fill="currentColor"/>
<path d="M14.5988 92.1345H210.284" stroke="currentColor" stroke-width="0.42"/>
<path d="M32.8471 102.147C32.7695 101.061 32.6918 99.7413 32.6918 98.8098C32.3812 99.6637 32.0706 100.673 31.76 101.759L30.3623 105.485H29.5857L28.3433 101.837C27.955 100.75 27.6444 99.7413 27.4891 98.8098C27.4891 99.7413 27.4115 101.061 27.3338 102.225L27.1008 105.485H26.169L26.7126 97.8008H27.955L29.2751 101.527C29.5857 102.458 29.8187 103.312 30.0516 104.088C30.2846 103.312 30.5176 102.458 30.9058 101.527L32.3036 97.8008H33.546L34.0119 105.485H33.0025L32.8471 102.147Z" fill="currentColor"/>
<path d="M39.0594 97.8784V105.563H38.0499V97.8784H39.0594Z" fill="currentColor"/>
<path d="M43.3303 97.956C43.9515 97.8784 44.6504 97.8008 45.4269 97.8008C46.8246 97.8008 47.8341 98.1113 48.533 98.7322C49.2319 99.3532 49.6201 100.285 49.6201 101.527C49.6201 102.768 49.2319 103.777 48.533 104.554C47.8341 105.252 46.5917 105.64 45.1163 105.64C44.4174 105.64 43.7962 105.64 43.3303 105.563V97.956ZM44.3397 104.787C44.5727 104.864 44.961 104.864 45.3492 104.864C47.4459 104.864 48.6107 103.7 48.6107 101.604C48.6107 99.7413 47.6012 98.6546 45.5045 98.6546C44.961 98.6546 44.5727 98.7322 44.3397 98.7322V104.787Z" fill="currentColor"/>
<path d="M57.5408 104.321C58.0067 104.631 58.6279 104.787 59.3268 104.787C60.3363 104.787 60.9575 104.243 60.9575 103.467C60.9575 102.768 60.5692 102.303 59.4821 101.915C58.2397 101.449 57.4631 100.828 57.4631 99.7412C57.4631 98.5769 58.4726 97.6455 59.948 97.6455C60.7245 97.6455 61.3458 97.8007 61.6564 98.0336L61.3458 98.8098C61.1128 98.6546 60.5692 98.4217 59.8704 98.4217C58.7832 98.4217 58.395 99.0427 58.395 99.586C58.395 100.285 58.8609 100.673 59.948 101.061C61.2681 101.604 61.8893 102.225 61.8893 103.312C61.8893 104.476 61.0352 105.563 59.1715 105.563C58.395 105.563 57.6184 105.33 57.2302 105.097L57.5408 104.321Z" fill="currentColor"/>
<path d="M67.0921 105.563L65.1508 97.8784H66.2379L67.1697 101.759C67.4027 102.691 67.6356 103.7 67.7133 104.398C67.8686 103.622 68.1016 102.691 68.3345 101.759L69.344 97.8784H70.3535L71.2853 101.759C71.5183 102.691 71.6736 103.622 71.8289 104.398C71.9842 103.545 72.2172 102.691 72.4501 101.759L73.4596 97.8784H74.5468L72.3725 105.563H71.363L70.3535 101.604C70.1205 100.595 69.9652 99.8965 69.8876 99.1203C69.7323 99.8965 69.577 100.673 69.2664 101.604L68.1792 105.64H67.0921V105.563Z" fill="currentColor"/>
<path d="M81.9237 101.915H78.9729V104.709H82.312V105.563H77.9634V97.8784H82.1567V98.7322H78.9729V101.138H81.9237V101.915Z" fill="currentColor"/>
<path d="M86.117 97.956C86.7382 97.8784 87.4371 97.8008 88.2136 97.8008C89.6114 97.8008 90.6209 98.1113 91.3197 98.7322C92.0186 99.3532 92.4069 100.285 92.4069 101.527C92.4069 102.768 92.0186 103.777 91.3197 104.554C90.6209 105.252 89.3784 105.64 87.903 105.64C87.2041 105.64 86.5829 105.64 86.117 105.563V97.956ZM87.1265 104.787C87.3594 104.864 87.7477 104.864 88.136 104.864C90.2326 104.864 91.3974 103.7 91.3974 101.604C91.3974 99.7413 90.3879 98.6546 88.2913 98.6546C87.7477 98.6546 87.3594 98.7322 87.1265 98.7322V104.787Z" fill="currentColor"/>
<path d="M100.172 101.915H97.2213V104.709H100.56V105.563H96.2119V97.8784H100.405V98.7322H97.2213V101.138H100.172V101.915Z" fill="currentColor"/>
<path d="M104.365 105.563V97.8784H105.453L107.938 101.759C108.481 102.691 108.947 103.467 109.335 104.243C109.258 103.234 109.258 102.303 109.258 101.061V97.8008H110.189V105.485H109.18L106.773 101.604C106.229 100.75 105.686 99.8965 105.375 99.0427C105.453 99.9741 105.453 100.906 105.453 102.225V105.485H104.365V105.563Z" fill="currentColor"/>
<path d="M119.585 97.8784V102.458C119.585 104.166 120.362 104.864 121.371 104.864C122.536 104.864 123.235 104.088 123.235 102.458V97.8784H124.245V102.38C124.245 104.709 123.002 105.718 121.371 105.718C119.818 105.718 118.576 104.864 118.576 102.458V97.956H119.585V97.8784Z" fill="currentColor"/>
<path d="M128.516 105.563V97.8784H129.603L132.088 101.759C132.631 102.691 133.097 103.467 133.485 104.243C133.408 103.234 133.408 102.303 133.408 101.061V97.8008H134.339V105.485H133.33L130.923 101.604C130.379 100.75 129.836 99.8965 129.525 99.0427C129.603 99.9741 129.603 100.906 129.603 102.225V105.485H128.516V105.563Z" fill="currentColor"/>
<path d="M139.542 97.8784V105.563H138.533V97.8784H139.542Z" fill="currentColor"/>
<path d="M145.444 105.563L142.959 97.8784H144.046L145.211 101.682C145.521 102.691 145.832 103.7 146.065 104.554C146.298 103.7 146.609 102.691 146.919 101.682L148.239 97.8784H149.326L146.609 105.563H145.444Z" fill="currentColor"/>
<path d="M156.626 101.915H153.675V104.709H157.014V105.563H152.666V97.8784H156.859V98.7322H153.675V101.138H156.626V101.915Z" fill="currentColor"/>
<path d="M160.819 97.956C161.285 97.8784 162.062 97.8008 162.76 97.8008C163.848 97.8008 164.546 98.0336 165.012 98.4217C165.401 98.7322 165.634 99.2756 165.634 99.8965C165.634 100.906 165.012 101.604 164.158 101.837C164.702 102.07 165.09 102.613 165.323 103.389C165.556 104.476 165.789 105.175 165.944 105.485H164.935C164.779 105.252 164.624 104.631 164.469 103.622C164.236 102.536 163.848 102.147 162.916 102.147H161.984V105.485H160.974V97.956H160.819ZM161.751 101.449H162.76C163.848 101.449 164.469 100.906 164.469 99.9741C164.469 98.9651 163.77 98.577 162.683 98.577C162.217 98.577 161.906 98.6546 161.673 98.6546V101.449H161.751Z" fill="currentColor"/>
<path d="M169.283 104.321C169.749 104.631 170.37 104.787 171.069 104.787C172.079 104.787 172.7 104.243 172.7 103.467C172.7 102.768 172.312 102.303 171.225 101.915C169.982 101.449 169.206 100.828 169.206 99.7412C169.206 98.5769 170.215 97.6455 171.691 97.6455C172.467 97.6455 173.011 97.8007 173.399 98.0336L173.088 98.8098C172.855 98.6546 172.312 98.4217 171.613 98.4217C170.526 98.4217 170.137 99.0427 170.137 99.586C170.137 100.285 170.603 100.673 171.691 101.061C173.011 101.604 173.632 102.225 173.632 103.312C173.632 104.476 172.778 105.563 170.914 105.563C170.137 105.563 169.361 105.33 168.973 105.097L169.283 104.321Z" fill="currentColor"/>
<path d="M178.602 97.8784V105.563H177.592V97.8784H178.602Z" fill="currentColor"/>
<path d="M184.27 98.7322H181.941V97.8784H187.609V98.7322H185.28V105.563H184.27V98.7322Z" fill="currentColor"/>
<path d="M193.123 105.563V102.303L190.715 97.8784H191.88L192.967 99.9742C193.278 100.517 193.511 101.061 193.744 101.527C193.977 101.061 194.21 100.517 194.52 99.9742L195.607 97.8784H196.695L194.132 102.303V105.563H193.123Z" fill="currentColor"/>
</svg>
