<?xml version="1.0" encoding="UTF-8"?>
<svg version="1.1" xmlns="http://www.w3.org/2000/svg" width="512" height="512">
<path d="M0 0 C0.86753906 -0.02900391 1.73507812 -0.05800781 2.62890625 -0.08789062 C13.0013053 -0.18897098 20.7709943 4.38073862 28.25 11.3125 C59.3032615 43.59008363 80.80496578 103.01542825 82.75 147.4375 C82.07168262 159.76349577 75.26087878 167.66847578 67.25 176.3125 C66.70005371 176.910625 66.15010742 177.50875 65.58349609 178.125 C62.79677095 181.15310767 59.99501196 184.16644447 57.1796875 187.16796875 C54.39967272 190.13828738 51.71201919 193.17742303 49.0546875 196.2578125 C46.66218153 198.98174787 44.20590581 201.64589986 41.75 204.3125 C38.10577839 208.271048 34.51086096 212.26426975 30.984375 216.328125 C27.45499286 220.36624691 23.84365774 224.33164681 20.25 228.3125 C18.74971321 229.97890851 17.24971128 231.64557353 15.75 233.3125 C-20.25 273.3125 -20.25 273.3125 -22.50390625 275.80078125 C-24.01232184 277.48758338 -25.49921904 279.19385644 -26.96484375 280.91796875 C-33.80312129 288.86190804 -42.44868766 297.16882075 -53.2734375 298.66015625 C-60.44733955 299.05200804 -65.88235371 297.46791503 -71.75 293.3125 C-76.1913548 289.16893719 -79.4256422 284.3709925 -82.75 279.3125 C-74.69946584 298.40004729 -74.69946584 298.40004729 -66.25 317.3125 C-65.94900391 317.98015381 -65.64800781 318.64780762 -65.33789062 319.33569336 C-63.62336132 322.98870032 -61.78777716 325.64778319 -58.75 328.3125 C-52.90661229 325.93321109 -49.1656933 322.10998345 -44.8125 317.625 C-44.13509766 316.94244141 -43.45769531 316.25988281 -42.75976562 315.55664062 C-38.84484772 311.58166645 -35.10997613 307.49090034 -31.46264648 303.27026367 C-28.63893825 300.04242101 -25.69123267 296.93292713 -22.75 293.8125 C-18.61014374 289.40004281 -14.51976989 284.96735852 -10.5703125 280.3828125 C-6.57113865 275.83439588 -2.41233292 271.42655609 1.70361328 266.98388672 C4.1216275 264.37041571 6.53100122 261.7490738 8.9375 259.125 C9.62283813 258.37778687 9.62283813 258.37778687 10.32202148 257.61547852 C13.08851121 254.59427871 15.83160295 251.55336459 18.5625 248.5 C22.40309113 244.21812012 26.3187601 240.01086596 30.25 235.8125 C34.24095447 231.54949538 38.21757982 227.2775757 42.125 222.9375 C42.82367188 222.16148437 43.52234375 221.38546875 44.2421875 220.5859375 C45.60152535 219.04676508 46.93966744 217.48865601 48.2578125 215.9140625 C53.9202352 209.23018316 60.42187149 203.19082521 69.25 201.3125 C75.18619407 200.83377467 80.05119493 201.26175812 85.25 204.3125 C91.4810863 210.13675935 95.83483876 217.06729685 100 224.4375 C100.59780273 225.48156006 101.19560547 226.52562012 101.81152344 227.60131836 C151.17505609 314.47094431 151.17505609 314.47094431 145.859375 343.44140625 C140.72916616 361.82465459 120.84324528 376.79766652 107.8125 389.875 C107.29848633 390.39178314 106.78447266 390.90856628 106.25488281 391.44100952 C100.43610274 397.28267897 94.57078234 403.008235 88.25 408.3125 C87.64776611 408.82143799 87.04553223 409.33037598 86.42504883 409.85473633 C66.19452598 426.80785489 44.50095684 441.60784356 21.29980469 454.19726562 C19.90642405 454.95536029 18.51655265 455.71993321 17.12988281 456.49023438 C-30.62208913 483.0025049 -84.05880118 496.47301379 -137.75 504.3125 C-139.37808594 504.56241699 -139.37808594 504.56241699 -141.0390625 504.81738281 C-154.39018744 506.83761882 -167.70455273 507.66269305 -181.19503784 507.83920288 C-182.87807585 507.86278363 -184.56101481 507.89545576 -186.24368286 507.93789673 C-196.0757937 508.16174815 -203.8468509 507.89433169 -211.75 501.3125 C-212.59433594 500.64347656 -213.43867188 499.97445313 -214.30859375 499.28515625 C-225.85246298 487.5492892 -234.26384399 473.88039428 -241.75 459.3125 C-242.16636719 458.50570801 -242.58273438 457.69891602 -243.01171875 456.86767578 C-257.62234313 428.22523252 -277.44150799 383.45699596 -268.9765625 350.28125 C-265.82609943 343.22063772 -260.02925846 337.82528016 -254.75 332.3125 C-253.59479731 331.0082389 -252.44794669 329.69649578 -251.3125 328.375 C-247.92595159 324.47847725 -244.43662005 320.67897172 -240.94213867 316.87963867 C-236.50789684 312.05684099 -232.12489429 307.18917429 -227.75 302.3125 C-226.25028872 300.64557353 -224.75028679 298.97890851 -223.25 297.3125 C-222.5075 296.4875 -221.765 295.6625 -221 294.8125 C-205.25 277.3125 -205.25 277.3125 -202.9921875 274.8046875 C-201.51707382 273.16510121 -200.04308348 271.52450345 -198.5703125 269.8828125 C-194.44902232 265.2921939 -190.30126212 260.72802893 -186.125 256.1875 C-183.12819989 252.92859506 -180.15085453 249.65750451 -177.25 246.3125 C-173.88761231 242.43529697 -170.42450821 238.652949 -166.93969727 234.88598633 C-164.71519935 232.47741302 -162.52971194 230.05567993 -160.39453125 227.56640625 C-153.63073609 219.70124975 -144.92051377 211.29689925 -134.15625 210 C-127.68647499 209.71561429 -123.14827167 210.75905053 -117.75 214.3125 C-116.88375 214.869375 -116.0175 215.42625 -115.125 216 C-111.68974328 219.34485523 -109.27288404 223.25507825 -106.75 227.3125 C-109.15542742 219.54877563 -112.30567603 212.22592872 -115.625 204.8125 C-116.14191406 203.64074219 -116.65882813 202.46898437 -117.19140625 201.26171875 C-118.67676539 197.92807897 -120.19678249 194.61502229 -121.75 191.3125 C-122.18602539 190.384375 -122.62205078 189.45625 -123.07128906 188.5 C-123.4834668 187.6853125 -123.89564453 186.870625 -124.3203125 186.03125 C-124.67109863 185.32935547 -125.02188477 184.62746094 -125.38330078 183.90429688 C-127.29378618 181.67915132 -128.88597999 181.54471784 -131.75 181.3125 C-133.73642276 182.35044031 -133.73642276 182.35044031 -135.4375 184.125 C-136.12070313 184.77210938 -136.80390625 185.41921875 -137.5078125 186.0859375 C-138.24773437 186.82070312 -138.98765625 187.55546875 -139.75 188.3125 C-140.57242188 189.10914063 -141.39484375 189.90578125 -142.2421875 190.7265625 C-146.63274181 195.03704591 -150.83877125 199.44454019 -154.83984375 204.1171875 C-157.25833385 206.89672008 -159.7528069 209.603951 -162.25 212.3125 C-165.28911004 215.61257211 -168.31156625 218.92199951 -171.25 222.3125 C-174.6567735 226.2433925 -178.18002785 230.06446573 -181.703125 233.890625 C-184.25555143 236.66744057 -186.77983288 239.46230717 -189.25 242.3125 C-192.65744919 246.24417214 -196.18129673 250.06611244 -199.70532227 253.89282227 C-202.23740116 256.64723428 -204.74035268 259.41992499 -207.1875 262.25 C-210.81346983 266.43515554 -214.58643849 270.48010089 -218.35180664 274.53930664 C-220.98758993 277.38598555 -223.59458364 280.24605154 -226.125 283.1875 C-229.60073155 287.18544737 -233.16495118 291.10019382 -236.75 295 C-237.33185059 295.64243652 -237.91370117 296.28487305 -238.51318359 296.94677734 C-243.45911305 302.2931644 -248.77171255 307.86261032 -256.38671875 308.55078125 C-264.55253816 308.74943755 -269.72571632 308.00206065 -275.81640625 302.41796875 C-283.06128503 294.81019801 -288.86691081 285.98020038 -294.75 277.3125 C-295.21696289 276.63300293 -295.68392578 275.95350586 -296.16503906 275.25341797 C-308.24697226 257.60280412 -318.27912337 238.73565035 -324.75 218.3125 C-324.98267578 217.58289063 -325.21535156 216.85328125 -325.45507812 216.1015625 C-328.25081435 207.14883452 -330.31832389 198.08752751 -332.0625 188.875 C-332.23418701 187.98772217 -332.40587402 187.10044434 -332.58276367 186.1862793 C-334.91478034 173.13209521 -334.07049128 163.35450381 -326.5 152.25 C-317.10753733 139.92777833 -305.65562382 129.14210548 -294.75 118.1875 C-293.87835205 117.31109863 -293.0067041 116.43469727 -292.10864258 115.53173828 C-250.51311116 74.04389498 -197.21124825 43.77642323 -141.75 25.3125 C-140.19877441 24.79478027 -140.19877441 24.79478027 -138.61621094 24.26660156 C-94.70685889 9.79323111 -46.33724575 0.525763 0 0 Z M-105.75 228.3125 C-104.75 230.3125 -104.75 230.3125 -104.75 230.3125 Z M-104.75 230.3125 C-103.75 232.3125 -103.75 232.3125 -103.75 232.3125 Z " fill="#0079C0" transform="translate(349.75,4.6875)"/>
<path d="M0 0 C1.29997925 -0.05849121 1.29997925 -0.05849121 2.6262207 -0.11816406 C9.27878693 -0.14721745 12.82231075 2.10721025 17.625 6.5625 C18.23988281 7.11623291 18.85476563 7.66996582 19.48828125 8.24047852 C23.6951259 12.22317865 26.92858173 16.5441318 30 21.4375 C30.46768799 22.17436035 30.93537598 22.9112207 31.41723633 23.67041016 C49.56526709 52.67152399 61.467626 86.18139807 68.625 119.5625 C68.86734375 120.63886719 69.1096875 121.71523437 69.359375 122.82421875 C71.14585152 131.47897326 72.31552813 139.72503579 67.625 147.5625 C65.82311261 149.80271266 63.87081758 151.86995048 61.875 153.9375 C60.7870009 155.08912667 59.69975667 156.24146698 58.61328125 157.39453125 C58.09330566 157.94318848 57.57333008 158.4918457 57.03759766 159.05712891 C55.33254301 160.87416433 53.68891477 162.73740914 52.0625 164.625 C49.14702083 167.99669107 46.14424358 171.28392867 43.125 174.5625 C40.08609823 177.86276876 37.063439 181.17199347 34.125 184.5625 C30.7182265 188.4933925 27.19497215 192.31446573 23.671875 196.140625 C21.11944857 198.91744057 18.59516712 201.71230717 16.125 204.5625 C13.18655935 207.95300844 10.16383698 211.26216982 7.125 214.5625 C3.4808306 218.52109723 -0.11413779 222.51426832 -3.640625 226.578125 C-7.17000714 230.61624691 -10.78134226 234.58164681 -14.375 238.5625 C-15.87528679 240.22890851 -17.37528872 241.89557353 -18.875 243.5625 C-27.875 253.5625 -27.875 253.5625 -30.125 256.05078125 C-31.64059474 257.74266913 -33.14039838 259.4488207 -34.625 261.16796875 C-47.33307533 275.75136769 -47.33307533 275.75136769 -54.51171875 276.90625 C-58.06421628 277.12386087 -61.09353653 277.22523667 -64.30859375 275.5625 C-68.38567005 271.94680185 -70.69132842 267.27036444 -73.05859375 262.4453125 C-73.40430923 261.74661041 -73.75002472 261.04790833 -74.10621643 260.32803345 C-77.81218873 252.77430439 -81.27299015 245.11214055 -84.70077515 237.42910767 C-85.84636207 234.86160802 -86.99658599 232.29622488 -88.14770508 229.73120117 C-91.75480686 221.68775815 -95.34502551 213.63690747 -98.91868591 205.57855225 C-100.43545615 202.15931678 -101.95553251 198.74155483 -103.47561646 195.3237915 C-104.53070235 192.94664136 -105.57984903 190.56693453 -106.62866211 188.18701172 C-113.24061737 170.60094671 -113.24061737 170.60094671 -125.375 157.5625 C-131.82438995 156.39949525 -134.77026192 158.1364749 -140.00952148 161.75952148 C-143.83307614 164.67385229 -147.15860469 167.99107065 -150.5 171.4375 C-151.49580078 172.44103516 -151.49580078 172.44103516 -152.51171875 173.46484375 C-156.40544556 177.4195291 -160.12036928 181.49399823 -163.74951172 185.69189453 C-166.07262488 188.36532395 -168.47148426 190.96104767 -170.875 193.5625 C-173.91468996 196.86202777 -176.93658059 200.17201607 -179.875 203.5625 C-182.81344065 206.95300844 -185.83616302 210.26216982 -188.875 213.5625 C-192.5191694 217.52109723 -196.11413779 221.51426832 -199.640625 225.578125 C-203.17001966 229.61626124 -206.78198252 233.5810482 -210.375 237.5625 C-211.4578125 238.7690625 -211.4578125 238.7690625 -212.5625 240 C-216.68050498 244.58863413 -220.82619543 249.14970497 -225 253.6875 C-227.97718281 256.92467216 -230.93452856 260.17387729 -233.8125 263.5 C-236.9565201 267.12245794 -240.18816623 270.65972294 -243.4375 274.1875 C-244.17987915 274.99562134 -244.17987915 274.99562134 -244.93725586 275.82006836 C-245.91525269 276.8784707 -246.89863366 277.93192444 -247.88745117 278.98022461 C-248.90676675 280.06444983 -249.91155171 281.16246782 -250.90356445 282.27172852 C-253.13058465 284.67403169 -254.78765457 286.39027089 -257.97265625 287.32421875 C-258.78605469 287.29972656 -259.59945312 287.27523438 -260.4375 287.25 C-261.25347656 287.25386719 -262.06945312 287.25773437 -262.91015625 287.26171875 C-278.18000793 282.93001756 -293.99930735 249.1422489 -301.375 236.3125 C-311.25134022 218.5309233 -316.89442843 198.94747427 -321.1875 179.1875 C-321.51657349 177.70781738 -321.51657349 177.70781738 -321.85229492 176.19824219 C-323.79862693 166.83510445 -325.22402102 158.0139591 -319.91796875 149.6015625 C-317.91992127 146.96110482 -315.70298464 144.728592 -313.2890625 142.46875 C-311.15011555 140.33853344 -309.35678653 138.06762791 -307.5 135.6875 C-303.24865737 130.40442017 -298.60810995 125.60395701 -293.8125 120.8125 C-293.10432129 120.10367676 -292.39614258 119.39485352 -291.66650391 118.66455078 C-287.61569616 114.65502993 -283.46095791 110.81781536 -279.14575195 107.09472656 C-276.97094553 105.21287284 -274.86256263 103.26373967 -272.75 101.3125 C-267.13436113 96.25328877 -261.24218086 91.60294184 -255.24902344 87.00390625 C-253.39041145 85.57435373 -251.54295637 84.13118573 -249.6953125 82.6875 C-180.13693437 28.8666374 -87.30781425 2.06645714 0 0 Z " fill="#FED320" transform="translate(350.375,12.4375)"/>
<path d="M0 0 C0.86753906 -0.02900391 1.73507812 -0.05800781 2.62890625 -0.08789062 C13.0013053 -0.18897098 20.7709943 4.38073862 28.25 11.3125 C59.3032615 43.59008363 80.80496578 103.01542825 82.75 147.4375 C82.07168262 159.76349577 75.26087878 167.66847578 67.25 176.3125 C66.70005371 176.910625 66.15010742 177.50875 65.58349609 178.125 C62.79677095 181.15310767 59.99501196 184.16644447 57.1796875 187.16796875 C54.39967272 190.13828738 51.71201919 193.17742303 49.0546875 196.2578125 C46.66218153 198.98174787 44.20590581 201.64589986 41.75 204.3125 C38.10577839 208.271048 34.51086096 212.26426975 30.984375 216.328125 C27.45499286 220.36624691 23.84365774 224.33164681 20.25 228.3125 C18.74971321 229.97890851 17.24971128 231.64557353 15.75 233.3125 C-20.25 273.3125 -20.25 273.3125 -22.50390625 275.80078125 C-24.01232184 277.48758338 -25.49921904 279.19385644 -26.96484375 280.91796875 C-33.80312129 288.86190804 -42.44868766 297.16882075 -53.2734375 298.66015625 C-60.44733955 299.05200804 -65.88235371 297.46791503 -71.75 293.3125 C-76.1913548 289.16893719 -79.4256422 284.3709925 -82.75 279.3125 C-74.69946584 298.40004729 -74.69946584 298.40004729 -66.25 317.3125 C-65.94900391 317.98015381 -65.64800781 318.64780762 -65.33789062 319.33569336 C-63.62336132 322.98870032 -61.78777716 325.64778319 -58.75 328.3125 C-52.90661229 325.93321109 -49.1656933 322.10998345 -44.8125 317.625 C-44.13509766 316.94244141 -43.45769531 316.25988281 -42.75976562 315.55664062 C-38.84484772 311.58166645 -35.10997613 307.49090034 -31.46264648 303.27026367 C-28.63893825 300.04242101 -25.69123267 296.93292713 -22.75 293.8125 C-18.61014374 289.40004281 -14.51976989 284.96735852 -10.5703125 280.3828125 C-6.57113865 275.83439588 -2.41233292 271.42655609 1.70361328 266.98388672 C4.1216275 264.37041571 6.53100122 261.7490738 8.9375 259.125 C9.62283813 258.37778687 9.62283813 258.37778687 10.32202148 257.61547852 C13.08851121 254.59427871 15.83160295 251.55336459 18.5625 248.5 C22.40309113 244.21812012 26.3187601 240.01086596 30.25 235.8125 C34.24095447 231.54949538 38.21757982 227.2775757 42.125 222.9375 C42.82367188 222.16148437 43.52234375 221.38546875 44.2421875 220.5859375 C45.60152535 219.04676508 46.93966744 217.48865601 48.2578125 215.9140625 C53.9202352 209.23018316 60.42187149 203.19082521 69.25 201.3125 C75.18619407 200.83377467 80.05119493 201.26175812 85.25 204.3125 C91.4810863 210.13675935 95.83483876 217.06729685 100 224.4375 C100.59780273 225.48156006 101.19560547 226.52562012 101.81152344 227.60131836 C151.17505609 314.47094431 151.17505609 314.47094431 145.859375 343.44140625 C140.72916616 361.82465459 120.84324528 376.79766652 107.8125 389.875 C107.29848633 390.39178314 106.78447266 390.90856628 106.25488281 391.44100952 C100.43610274 397.28267897 94.57078234 403.008235 88.25 408.3125 C87.64776611 408.82143799 87.04553223 409.33037598 86.42504883 409.85473633 C66.19452598 426.80785489 44.50095684 441.60784356 21.29980469 454.19726562 C19.90642405 454.95536029 18.51655265 455.71993321 17.12988281 456.49023438 C-30.62208913 483.0025049 -84.05880118 496.47301379 -137.75 504.3125 C-139.37808594 504.56241699 -139.37808594 504.56241699 -141.0390625 504.81738281 C-154.39018744 506.83761882 -167.70455273 507.66269305 -181.19503784 507.83920288 C-182.87807585 507.86278363 -184.56101481 507.89545576 -186.24368286 507.93789673 C-196.0757937 508.16174815 -203.8468509 507.89433169 -211.75 501.3125 C-212.59433594 500.64347656 -213.43867188 499.97445313 -214.30859375 499.28515625 C-225.85246298 487.5492892 -234.26384399 473.88039428 -241.75 459.3125 C-242.16636719 458.50570801 -242.58273438 457.69891602 -243.01171875 456.86767578 C-257.62234313 428.22523252 -277.44150799 383.45699596 -268.9765625 350.28125 C-265.82609943 343.22063772 -260.02925846 337.82528016 -254.75 332.3125 C-253.59479731 331.0082389 -252.44794669 329.69649578 -251.3125 328.375 C-247.92595159 324.47847725 -244.43662005 320.67897172 -240.94213867 316.87963867 C-236.50789684 312.05684099 -232.12489429 307.18917429 -227.75 302.3125 C-226.25028872 300.64557353 -224.75028679 298.97890851 -223.25 297.3125 C-222.5075 296.4875 -221.765 295.6625 -221 294.8125 C-205.25 277.3125 -205.25 277.3125 -202.9921875 274.8046875 C-201.51707382 273.16510121 -200.04308348 271.52450345 -198.5703125 269.8828125 C-194.44902232 265.2921939 -190.30126212 260.72802893 -186.125 256.1875 C-183.12819989 252.92859506 -180.15085453 249.65750451 -177.25 246.3125 C-173.88761231 242.43529697 -170.42450821 238.652949 -166.93969727 234.88598633 C-164.71519935 232.47741302 -162.52971194 230.05567993 -160.39453125 227.56640625 C-153.63073609 219.70124975 -144.92051377 211.29689925 -134.15625 210 C-127.68647499 209.71561429 -123.14827167 210.75905053 -117.75 214.3125 C-116.88375 214.869375 -116.0175 215.42625 -115.125 216 C-111.68974328 219.34485523 -109.27288404 223.25507825 -106.75 227.3125 C-109.15542742 219.54877563 -112.30567603 212.22592872 -115.625 204.8125 C-116.14191406 203.64074219 -116.65882813 202.46898437 -117.19140625 201.26171875 C-118.67676539 197.92807897 -120.19678249 194.61502229 -121.75 191.3125 C-122.18602539 190.384375 -122.62205078 189.45625 -123.07128906 188.5 C-123.4834668 187.6853125 -123.89564453 186.870625 -124.3203125 186.03125 C-124.67109863 185.32935547 -125.02188477 184.62746094 -125.38330078 183.90429688 C-127.29378618 181.67915132 -128.88597999 181.54471784 -131.75 181.3125 C-133.73642276 182.35044031 -133.73642276 182.35044031 -135.4375 184.125 C-136.12070313 184.77210938 -136.80390625 185.41921875 -137.5078125 186.0859375 C-138.24773437 186.82070312 -138.98765625 187.55546875 -139.75 188.3125 C-140.57242188 189.10914063 -141.39484375 189.90578125 -142.2421875 190.7265625 C-146.63274181 195.03704591 -150.83877125 199.44454019 -154.83984375 204.1171875 C-157.25833385 206.89672008 -159.7528069 209.603951 -162.25 212.3125 C-165.28911004 215.61257211 -168.31156625 218.92199951 -171.25 222.3125 C-174.6567735 226.2433925 -178.18002785 230.06446573 -181.703125 233.890625 C-184.25555143 236.66744057 -186.77983288 239.46230717 -189.25 242.3125 C-192.65744919 246.24417214 -196.18129673 250.06611244 -199.70532227 253.89282227 C-202.23740116 256.64723428 -204.74035268 259.41992499 -207.1875 262.25 C-210.81346983 266.43515554 -214.58643849 270.48010089 -218.35180664 274.53930664 C-220.98758993 277.38598555 -223.59458364 280.24605154 -226.125 283.1875 C-229.60073155 287.18544737 -233.16495118 291.10019382 -236.75 295 C-237.33185059 295.64243652 -237.91370117 296.28487305 -238.51318359 296.94677734 C-243.45911305 302.2931644 -248.77171255 307.86261032 -256.38671875 308.55078125 C-264.55253816 308.74943755 -269.72571632 308.00206065 -275.81640625 302.41796875 C-283.06128503 294.81019801 -288.86691081 285.98020038 -294.75 277.3125 C-295.21696289 276.63300293 -295.68392578 275.95350586 -296.16503906 275.25341797 C-308.24697226 257.60280412 -318.27912337 238.73565035 -324.75 218.3125 C-324.98267578 217.58289063 -325.21535156 216.85328125 -325.45507812 216.1015625 C-328.25081435 207.14883452 -330.31832389 198.08752751 -332.0625 188.875 C-332.23418701 187.98772217 -332.40587402 187.10044434 -332.58276367 186.1862793 C-334.91478034 173.13209521 -334.07049128 163.35450381 -326.5 152.25 C-317.10753733 139.92777833 -305.65562382 129.14210548 -294.75 118.1875 C-293.87835205 117.31109863 -293.0067041 116.43469727 -292.10864258 115.53173828 C-250.51311116 74.04389498 -197.21124825 43.77642323 -141.75 25.3125 C-140.19877441 24.79478027 -140.19877441 24.79478027 -138.61621094 24.26660156 C-94.70685889 9.79323111 -46.33724575 0.525763 0 0 Z M-261.78515625 100.75 C-264.68279897 103.25441847 -267.63928772 105.66420737 -270.625 108.0625 C-274.33890341 111.08306977 -277.77048903 114.21151458 -281.09375 117.65234375 C-282.80511835 119.36774835 -284.59189408 120.93047857 -286.4375 122.5 C-294.9521748 129.87608456 -302.65420683 137.88549008 -309.6484375 146.7109375 C-311.72021626 149.27563017 -313.8936233 151.69888496 -316.125 154.125 C-322.34005848 161.14479713 -323.24747876 166.11944577 -322.75 175.3125 C-322.23593363 179.17267111 -321.46542339 182.94877288 -320.625 186.75 C-320.39981689 187.78987061 -320.17463379 188.82974121 -319.94262695 189.90112305 C-313.02557712 220.98634972 -300.32099447 247.52691661 -281.75 273.3125 C-281.15654785 274.13975586 -280.5630957 274.96701172 -279.95166016 275.81933594 C-278.05976025 278.44845962 -276.1574565 281.06964471 -274.25 283.6875 C-273.35027466 284.92886719 -273.35027466 284.92886719 -272.43237305 286.1953125 C-271.86687744 286.96359375 -271.30138184 287.731875 -270.71875 288.5234375 C-270.21794922 289.20712402 -269.71714844 289.89081055 -269.20117188 290.59521484 C-266.70512676 293.54898022 -264.18737873 294.80831462 -260.4375 295.3125 C-255.34620665 295.25277808 -252.89918198 293.08320698 -249.40112305 289.70678711 C-246.43233978 286.64812434 -243.56506864 283.51274006 -240.75 280.3125 C-240.08097656 279.56871094 -239.41195312 278.82492187 -238.72265625 278.05859375 C-237.66476523 276.86103008 -236.61891263 275.65271415 -235.5859375 274.43359375 C-233.04285681 271.49552393 -230.39424171 268.65943199 -227.75 265.8125 C-224.53812884 262.34990074 -221.33895959 258.88600227 -218.25 255.3125 C-215.16102519 251.73898013 -211.96154075 248.27542568 -208.75 244.8125 C-204.91952672 240.68109035 -201.13737257 236.52140246 -197.44921875 232.26171875 C-193.93593962 228.23154339 -190.33253666 224.28103388 -186.75 220.3125 C-185.24971321 218.64609149 -183.74971128 216.97942647 -182.25 215.3125 C-164.25 195.3125 -164.25 195.3125 -161.99609375 192.8125 C-160.50334159 191.15100194 -159.0163084 189.48434722 -157.53515625 187.8125 C-137.57864259 165.36580626 -137.57864259 165.36580626 -128.625 164.6875 C-124.11282184 165.41527067 -121.81038425 167.08418645 -118.75 170.3125 C-117.02566981 172.70841142 -115.69973957 175.24072423 -114.375 177.875 C-113.96419189 178.67309082 -113.55338379 179.47118164 -113.13012695 180.29345703 C-106.84713416 192.7732655 -101.37436055 205.66102594 -95.76582336 218.45323181 C-91.92248489 227.21438122 -87.9957547 235.93760429 -84.06689453 244.66064453 C-81.54699511 250.265647 -79.0670222 255.88151007 -76.67163086 261.54077148 C-73.94476873 267.95769258 -71.04600279 273.8029371 -66.75 279.3125 C-66.0075 280.323125 -65.265 281.33375 -64.5 282.375 C-60.97925114 284.85552761 -58.6121858 285.09076009 -54.36328125 284.8515625 C-43.62569081 282.63663353 -35.48473598 271.45343657 -28.6953125 263.54296875 C-26.26276342 260.7538412 -23.75819623 258.03334121 -21.25 255.3125 C-17.62884902 251.37988493 -14.06040525 247.41035354 -10.55859375 243.37109375 C-7.4722052 239.85807698 -4.30371222 236.41950182 -1.15234375 232.96484375 C0.81941844 230.78789004 2.76365337 228.59411326 4.6875 226.375 C8.11768576 222.42582633 11.66003518 218.58227695 15.20288086 214.73461914 C17.75540453 211.9577363 20.27975746 209.16277985 22.75 206.3125 C26.1567735 202.3816075 29.68002785 198.56053427 33.203125 194.734375 C35.75555143 191.95755943 38.27983288 189.16269283 40.75 186.3125 C43.68844751 182.92198364 46.7114362 179.61308821 49.75 176.3125 C65.31609354 161.27830902 65.31609354 161.27830902 71.5234375 141.890625 C68.29892735 99.69560649 47.81404526 42.87515599 17.13671875 12.86328125 C11.96273324 8.61054367 7.94761094 7.79681577 1.3125 7.875 C-0.0947937 7.88635986 -0.0947937 7.88635986 -1.53051758 7.89794922 C-93.07220968 9.86689683 -192.12510395 40.12759006 -261.78515625 100.75 Z M49.38671875 227.890625 C46.44979251 231.21949935 43.41153759 234.44959413 40.375 237.6875 C35.69922377 242.67597373 31.07288992 247.69948979 26.515625 252.796875 C23.82620734 255.78305599 21.10365044 258.73719812 18.375 261.6875 C17.86783447 262.23591553 17.36066895 262.78433105 16.83813477 263.34936523 C16.07714478 264.17223022 16.07714478 264.17223022 15.30078125 265.01171875 C8.33278622 272.54654146 1.41080792 280.12092392 -5.4453125 287.7578125 C-10.31557447 293.15637407 -15.2465724 298.49980431 -20.16601562 303.85351562 C-21.56941278 305.38114157 -22.97232615 306.9092099 -24.375 308.4375 C-25.05876709 309.18205444 -25.05876709 309.18205444 -25.75634766 309.94165039 C-28.69590484 313.14752914 -31.60364513 316.38010073 -34.5 319.625 C-35.9143753 321.18957445 -37.33085304 322.75225239 -38.75 324.3125 C-39.62205078 325.28509766 -39.62205078 325.28509766 -40.51171875 326.27734375 C-45.76399142 331.8724221 -51.85641663 336.81010215 -59.625 337.8125 C-64.01062764 337.11079958 -65.9538371 336.37418576 -68.66650391 332.75683594 C-73.39379289 324.91499951 -77.4453159 316.9579051 -81.125 308.5625 C-81.7110399 307.24423104 -82.29781521 305.92628881 -82.88525391 304.60864258 C-84.49967733 300.97911776 -86.10092445 297.34392905 -87.69824219 293.70684814 C-88.80247636 291.19303648 -89.90885771 288.68017783 -91.015625 286.16748047 C-94.50139433 278.25149919 -97.98116009 270.33293668 -101.44737244 262.40837097 C-102.85937535 259.18149352 -104.27413986 255.95583222 -105.68966675 252.73049927 C-106.41122886 251.0850386 -107.13166532 249.43908396 -107.85110474 247.79269409 C-108.92721663 245.33161195 -110.00801633 242.87263665 -111.08984375 240.4140625 C-111.41145477 239.67592819 -111.7330658 238.93779388 -112.06442261 238.17729187 C-115.32915699 230.78338228 -119.27470184 223.36639125 -125.75 218.3125 C-130.11885793 216.77055014 -133.13491898 217.14233115 -137.3125 218.875 C-147.0705894 224.18674285 -154.87415072 233.8741563 -161.98046875 242.2578125 C-164.34182005 244.99969061 -166.79691374 247.65304104 -169.25 250.3125 C-172.28919621 253.61249037 -175.31156845 256.92200206 -178.25 260.3125 C-181.61322638 264.19067013 -185.08335671 267.96777811 -188.55810547 271.74560547 C-192.99223628 276.56834891 -197.3751824 281.4359112 -201.75 286.3125 C-203.24971128 287.97942647 -204.74971321 289.64609149 -206.25 291.3125 C-206.9925 292.1375 -207.735 292.9625 -208.5 293.8125 C-224.25 311.3125 -224.25 311.3125 -226.5078125 313.8203125 C-227.98292618 315.45989879 -229.45691652 317.10049655 -230.9296875 318.7421875 C-234.54021364 322.76387676 -238.16705615 326.76645466 -241.8425293 330.72900391 C-253.82387993 342.0653113 -253.82387993 342.0653113 -259.8671875 356.2109375 C-257.75991221 386.46053439 -248.85317986 416.05508308 -235.75 443.3125 C-235.24702393 444.37186768 -235.24702393 444.37186768 -234.73388672 445.45263672 C-228.60968498 458.296734 -221.35850951 469.95847819 -212.75 481.3125 C-212.24726563 481.98410156 -211.74453125 482.65570313 -211.2265625 483.34765625 C-207.47690715 488.06062084 -203.32973948 491.92216474 -197.75 494.3125 C-194.59333948 494.64785936 -194.59333948 494.64785936 -191.22265625 494.515625 C-189.98273926 494.49169678 -188.74282227 494.46776855 -187.46533203 494.44311523 C-155.60662906 493.32309906 -123.86450467 489.08501458 -92.7890625 482.00488281 C-90.12353695 481.39760209 -87.45391067 480.81694142 -84.78125 480.2421875 C-59.13008607 474.49470243 -33.67401033 465.0715209 -9.75 454.3125 C-8.92338867 453.94592285 -8.09677734 453.5793457 -7.24511719 453.20166016 C29.44958763 436.83661473 63.2622156 413.41652002 92.46484375 385.91015625 C94.7218659 383.80507949 97.0112814 381.79420347 99.375 379.8125 C103.84138492 375.95988891 107.70260654 371.54445326 111.64453125 367.171875 C113.7131508 364.90166584 115.80747016 362.71068654 118 360.5625 C130.16609929 349.14054383 130.16609929 349.14054383 135.49560547 334.20361328 C135.4293021 329.07835018 134.08950328 324.82615508 132.3203125 320.0546875 C132.01439682 319.19689697 131.70848114 318.33910645 131.39329529 317.45532227 C130.40258956 314.69353059 129.39015585 311.94038897 128.375 309.1875 C127.68325335 307.28411104 126.9917668 305.38062754 126.30053711 303.47705078 C121.44689913 290.19509705 116.32790098 277.08962305 110.25 264.3125 C109.90952637 263.59143066 109.56905273 262.87036133 109.21826172 262.12744141 C102.39133196 247.78590575 94.54184304 233.95197516 86.3125 220.375 C85.85190186 219.6113916 85.39130371 218.8477832 84.91674805 218.06103516 C84.48144775 217.35124512 84.04614746 216.64145508 83.59765625 215.91015625 C83.21617432 215.28633057 82.83469238 214.66250488 82.44165039 214.01977539 C80.66796896 211.47862516 79.30079166 209.53466738 76.19921875 208.87890625 C64.03300106 208.85789378 56.78085515 219.27275041 49.38671875 227.890625 Z M-105.75 228.3125 C-104.75 230.3125 -104.75 230.3125 -104.75 230.3125 Z M-104.75 230.3125 C-103.75 232.3125 -103.75 232.3125 -103.75 232.3125 Z " fill="#FFFFFF" transform="translate(349.75,4.6875)"/>
</svg>
