<svg xmlns="http://www.w3.org/2000/svg" xml:space="preserve" viewBox="0 0 284.6 154.6"><path d="M165.2 33c.1.6 0 1.3-.4 1.8-.5.6-12.7 14.1-12.7 14.1-3.4 4-4.2 1-5.7-2.2-1.5-3.3-2.2-5.1-3.5-7.9-1.4-3-2.2-4.4-5.3-.9-3.8 4.1-12 13.5-12.7 14-.6.5-1.4.2-1.8-.3-3.7-5-5.6-7.9-6.6-14.5-.1-.5-.2-1.1.5-2.1 10.5-12.5 23.6-17.6 39.9-18.5.8-.1 1.4.4 1.8.8 2.6 2.5 5.6 9.7 6.5 15.7" style="fill:#ffd500"/><path d="M124.3 60.4c-.1-.8-.2-1.1.4-1.8.5-.6 12.7-14.1 12.7-14.1 3.4-4 4.2-1 5.6 2.2 1.5 3.3 2.2 5.1 3.5 7.9 1.4 3 2.2 4.4 5.3.9 3.8-4.1 11.8-12.9 12.3-13.5.8-.8 1.8-.7 2.2-.1 3.4 5.6 4.5 8.1 6.6 14.5.2.4.2 1.1-.5 2C162 71 149 76 132.7 76.9c-.8.1-1.4-.4-1.8-.8-2.7-2.5-6.1-9.6-6.6-15.7" style="fill:#1072b9"/><path d="M40.1 100.3c-.2-3.3-.4-7.3-.4-10.3h-.1c-.8 2.8-1.8 5.7-3 9l-4.2 11.5h-2.3l-3.9-11.3c-1.1-3.4-2-6.4-2.7-9.2h-.1c-.1 3-.2 6.9-.5 10.5l-.6 10.2h-2.9L21.1 87H25l4.1 11.5c1 2.9 1.8 5.5 2.4 8h.1c.6-2.4 1.5-5 2.5-8L38.3 87h3.9l1.5 23.8h-3zM50.8 90.6c-1.2 0-1.9-.9-1.9-2s.8-2 2-2 2 .9 2 2c-.1 1-.9 2-2.1 2m-1.5 20.2V93.7h3.1v17.1zM61.8 89.6v4.1h4.4v2.4h-4.4v9.2c0 2.1.6 3.3 2.3 3.3.8 0 1.3-.1 1.8-.2l.1 2.4c-.6.2-1.6.4-2.7.4-1.4 0-2.6-.5-3.3-1.3q-1.2-1.5-1.2-4.5v-9.3h-2.6v-2.4h2.6v-3.1zM74 89.6v4.1h4.4v2.4H74v9.2c0 2.1.6 3.3 2.3 3.3.8 0 1.3-.1 1.8-.2l.1 2.4c-.6.2-1.6.4-2.7.4-1.4 0-2.6-.5-3.3-1.3q-1.2-1.5-1.2-4.5v-9.3h-2.6v-2.4H71v-3.1zM96.7 106.1c0 1.8 0 3.3.1 4.7h-2.7L94 108h-.1c-.8 1.4-2.6 3.2-5.6 3.2-2.7 0-5.9-1.5-5.9-7.5v-10h3.1v9.4c0 3.2 1 5.5 3.8 5.5 2.1 0 3.5-1.4 4.1-2.9.2-.4.3-1 .3-1.6V93.7h3.1v12.4zM102.4 98.3c0-1.8 0-3.2-.1-4.6h2.8l.2 2.8h.1c.8-1.6 2.8-3.2 5.6-3.2 2.4 0 6 1.4 6 7.3v10.2h-3.1V101c0-2.8-1-5.1-3.9-5.1-2 0-3.6 1.4-4.2 3.2-.1.4-.2 1-.2 1.4v10.3h-3.1V98.3zM124 90.6c-1.2 0-1.9-.9-1.9-2s.8-2 2-2 2 .9 2 2c-.1 1-.8 2-2.1 2m-1.5 20.2V93.7h3.1v17.1zM132.5 93.7l3.3 9.6c.6 1.6 1 3 1.4 4.4h.1c.4-1.4.9-2.8 1.4-4.4l3.3-9.6h3.2l-6.7 17.1h-3L129 93.7zM150.2 102.7c.1 4.2 2.7 5.9 5.8 5.9 2.2 0 3.6-.4 4.7-.8l.6 2.2c-1.1.5-3 1.1-5.7 1.1-5.2 0-8.4-3.5-8.4-8.6 0-5.2 3.1-9.2 8-9.2 5.6 0 7 4.9 7 8 0 .6 0 1.1-.1 1.5zm9-2.2c0-1.9-.8-5-4.3-5-3.2 0-4.5 2.9-4.8 5zM166.6 99c0-2 0-3.7-.1-5.3h2.7l.1 3.3h.1c.8-2.3 2.7-3.7 4.8-3.7.3 0 .6 0 .8.1v2.9c-.4 0-.7-.1-1.1-.1-2.2 0-3.7 1.7-4.2 4-.1.5-.1 1-.1 1.5v9.1h-3.1zM178.2 107.6c1 .6 2.6 1.2 4.1 1.2 2.2 0 3.3-1.1 3.3-2.5 0-1.5-.9-2.3-3.1-3.1-3.1-1.1-4.5-2.8-4.5-4.8 0-2.8 2.3-5 5.9-5 1.7 0 3.2.5 4.2 1.1l-.7 2.2c-.7-.4-1.9-1-3.5-1-1.8 0-2.8 1.1-2.8 2.3 0 1.4 1 2.1 3.2 2.9 2.9 1.1 4.5 2.6 4.5 5.1 0 3-2.4 5.1-6.3 5.1-1.9 0-3.6-.5-4.8-1.2zM194.6 90.6c-1.2 0-1.9-.9-1.9-2s.8-2 2-2 2 .9 2 2c-.1 1-.8 2-2.1 2m-1.5 20.2V93.7h3.1v17.1zM205.6 89.6v4.1h4.4v2.4h-4.4v9.2c0 2.1.6 3.3 2.3 3.3.8 0 1.3-.1 1.8-.2l.1 2.4c-.6.2-1.5.4-2.8.4-1.4 0-2.6-.5-3.3-1.3q-1.2-1.5-1.2-4.5v-9.3H200v-2.4h2.6v-3.1zM215.7 102.7c.1 4.2 2.7 5.9 5.8 5.9 2.2 0 3.6-.4 4.7-.8l.6 2.2c-1.1.5-3 1.1-5.7 1.1-5.2 0-8.4-3.5-8.4-8.6 0-5.2 3.1-9.2 8-9.2 5.6 0 7 4.9 7 8 0 .6 0 1.1-.1 1.5zm9-2.2c0-1.9-.8-5-4.3-5-3.2 0-4.5 2.9-4.8 5zM235.8 89.6v4.1h4.4v2.4h-4.4v9.2c0 2.1.6 3.3 2.3 3.3.8 0 1.3-.1 1.8-.2l.1 2.4c-.6.2-1.6.4-2.8.4-1.4 0-2.6-.5-3.3-1.3q-1.2-1.5-1.2-4.5v-9.3h-2.6v-2.4h2.6v-3.1zM245.8 102.7c.1 4.2 2.7 5.9 5.8 5.9 2.2 0 3.6-.4 4.7-.8l.6 2.2c-1.1.5-3 1.1-5.7 1.1-5.2 0-8.4-3.5-8.4-8.6 0-5.2 3.1-9.2 8-9.2 5.6 0 7 4.9 7 8 0 .6 0 1.1-.1 1.5zm9.1-2.2c0-1.9-.8-5-4.3-5-3.2 0-4.5 2.9-4.8 5zM266 89.6v4.1h4.4v2.4H266v9.2c0 2.1.6 3.3 2.3 3.3.8 0 1.3-.1 1.8-.2l.1 2.4c-.6.2-1.6.4-2.8.4-1.4 0-2.6-.5-3.3-1.3q-1.2-1.5-1.2-4.5v-9.3h-2.6v-2.4h2.6v-3.1z"/><path d="M18.8 118.7h252" style="fill:none;stroke:#000;stroke-width:.42"/><path d="M42.3 131.6c-.1-1.4-.2-3.1-.2-4.3-.4 1.1-.8 2.4-1.2 3.8l-1.8 4.8h-1l-1.6-4.7c-.5-1.4-.9-2.7-1.1-3.9 0 1.2-.1 2.9-.2 4.4l-.3 4.2h-1.2l.7-9.9H36l1.7 4.8c.4 1.2.7 2.3 1 3.3.3-1 .6-2.1 1.1-3.3l1.8-4.8h1.6l.6 9.9h-1.3zM50.3 126.1v9.9H49v-9.9zM55.8 126.2c.8-.1 1.7-.2 2.7-.2 1.8 0 3.1.4 4 1.2s1.4 2 1.4 3.6-.5 2.9-1.4 3.9c-.9.9-2.5 1.4-4.4 1.4-.9 0-1.7 0-2.3-.1zm1.3 8.8c.3.1.8.1 1.3.1 2.7 0 4.2-1.5 4.2-4.2 0-2.4-1.3-3.8-4-3.8-.7 0-1.2.1-1.5.1zM74.1 134.4c.6.4 1.4.6 2.3.6 1.3 0 2.1-.7 2.1-1.7 0-.9-.5-1.5-1.9-2-1.6-.6-2.6-1.4-2.6-2.8 0-1.5 1.3-2.7 3.2-2.7 1 0 1.8.2 2.2.5l-.4 1c-.3-.2-1-.5-1.9-.5-1.4 0-1.9.8-1.9 1.5 0 .9.6 1.4 2 1.9 1.7.7 2.5 1.5 2.5 2.9 0 1.5-1.1 2.9-3.5 2.9-1 0-2-.3-2.5-.6zM86.4 136l-2.5-9.9h1.4l1.2 5c.3 1.2.6 2.5.7 3.4.2-1 .5-2.2.8-3.4l1.3-5h1.3l1.2 5c.3 1.2.5 2.4.7 3.4.2-1.1.5-2.2.8-3.4l1.3-5H96l-2.8 9.9h-1.3l-1.3-5.1c-.3-1.3-.5-2.2-.6-3.2-.2 1-.4 2-.8 3.2l-1.4 5.2h-1.4zM105.5 131.3h-3.8v3.6h4.3v1.1h-5.6v-9.9h5.4v1.1h-4.1v3.1h3.8zM110.9 126.2c.8-.1 1.7-.2 2.7-.2 1.8 0 3.1.4 4 1.2s1.4 2 1.4 3.6-.5 2.9-1.4 3.9c-.9.9-2.5 1.4-4.4 1.4-.9 0-1.7 0-2.3-.1zm1.3 8.8c.3.1.8.1 1.3.1 2.7 0 4.2-1.5 4.2-4.2 0-2.4-1.3-3.8-4-3.8-.7 0-1.2.1-1.5.1zM129 131.3h-3.8v3.6h4.3v1.1h-5.6v-9.9h5.4v1.1h-4.1v3.1h3.8zM134.4 136v-9.9h1.4l3.2 5c.7 1.2 1.3 2.2 1.8 3.2-.1-1.3-.1-2.5-.1-4.1V126h1.2v9.9h-1.3l-3.1-5c-.7-1.1-1.4-2.2-1.8-3.3.1 1.2.1 2.4.1 4.1v4.2h-1.4zM154 126.1v5.9c0 2.2 1 3.1 2.3 3.1 1.5 0 2.4-1 2.4-3.1v-5.9h1.3v5.8c0 3-1.6 4.3-3.7 4.3-2 0-3.6-1.1-3.6-4.2v-5.8h1.3zM165.5 136v-9.9h1.4l3.2 5c.7 1.2 1.3 2.2 1.8 3.2-.1-1.3-.1-2.5-.1-4.1V126h1.2v9.9h-1.3l-3.1-5c-.7-1.1-1.4-2.2-1.8-3.3.1 1.2.1 2.4.1 4.1v4.2h-1.4zM179.7 126.1v9.9h-1.3v-9.9zM187.3 136l-3.2-9.9h1.4l1.5 4.9c.4 1.3.8 2.6 1.1 3.7.3-1.1.7-2.4 1.1-3.7l1.7-4.9h1.4l-3.5 9.9zM201.7 131.3h-3.8v3.6h4.3v1.1h-5.6v-9.9h5.4v1.1h-4.1v3.1h3.8zM207.1 126.2c.6-.1 1.6-.2 2.5-.2 1.4 0 2.3.3 2.9.8.5.4.8 1.1.8 1.9 0 1.3-.8 2.2-1.9 2.5.7.3 1.2 1 1.5 2 .3 1.4.6 2.3.8 2.7h-1.3q-.3-.45-.6-2.4c-.3-1.4-.8-1.9-2-1.9h-1.2v4.3h-1.3v-9.7zm1.2 4.5h1.3c1.4 0 2.2-.7 2.2-1.9 0-1.3-.9-1.8-2.3-1.8-.6 0-1 .1-1.3.1v3.6zM218 134.4c.6.4 1.4.6 2.3.6 1.3 0 2.1-.7 2.1-1.7 0-.9-.5-1.5-1.9-2-1.6-.6-2.6-1.4-2.6-2.8 0-1.5 1.3-2.7 3.2-2.7 1 0 1.7.2 2.2.5l-.4 1c-.3-.2-1-.5-1.9-.5-1.4 0-1.9.8-1.9 1.5 0 .9.6 1.4 2 1.9 1.7.7 2.5 1.5 2.5 2.9 0 1.5-1.1 2.9-3.5 2.9-1 0-2-.3-2.5-.6zM230 126.1v9.9h-1.3v-9.9zM237.3 127.2h-3v-1.1h7.3v1.1h-3v8.8h-1.3zM248.7 136v-4.2l-3.1-5.7h1.5l1.4 2.7c.4.7.7 1.4 1 2 .3-.6.6-1.3 1-2l1.4-2.7h1.4l-3.3 5.7v4.2z"/></svg>